<svg width="27" height="27" viewBox="0 0 27 27" fill="none" xmlns="http://www.w3.org/2000/svg">
<g clip-path="url(#clip0_29_79)">
<path d="M22.9539 0H6.70392C6.59617 0 6.49284 0.0444474 6.41666 0.123564C6.34047 0.202681 6.29767 0.309987 6.29767 0.421875C6.29767 0.533763 6.34047 0.641069 6.41666 0.720186C6.49284 0.799303 6.59617 0.84375 6.70392 0.84375H18.8914V26.1562H6.70392C6.59617 26.1562 6.49284 26.2007 6.41666 26.2798C6.34047 26.3589 6.29767 26.4662 6.29767 26.5781C6.29767 26.69 6.34047 26.7973 6.41666 26.8764C6.49284 26.9556 6.59617 27 6.70392 27H22.9539C23.9236 27 24.8536 26.6 25.5393 25.8879C26.225 25.1759 26.6102 24.2101 26.6102 23.2031V3.79688C26.6102 2.78988 26.225 1.82413 25.5393 1.11208C24.8536 0.400027 23.9236 0 22.9539 0ZM25.7977 23.2031C25.7977 23.9863 25.4981 24.7375 24.9648 25.2913C24.4314 25.8451 23.7081 26.1562 22.9539 26.1562H19.7039V0.84375H22.9539C23.7081 0.84375 24.4314 1.15488 24.9648 1.7087C25.4981 2.26252 25.7977 3.01366 25.7977 3.79688V23.2031Z" fill="black"/>
<path d="M8.44876 19.5306C8.40624 19.5685 8.3717 19.615 8.34731 19.6673C8.32293 19.7197 8.30922 19.7767 8.30706 19.8348C8.3049 19.8929 8.31433 19.9508 8.33475 20.005C8.35518 20.0591 8.38616 20.1083 8.42575 20.1494C8.46534 20.1905 8.51269 20.2227 8.56482 20.2439C8.61695 20.2651 8.67274 20.2749 8.72869 20.2726C8.78464 20.2704 8.83954 20.2562 8.88994 20.2308C8.94034 20.2055 8.98516 20.1696 9.02157 20.1255L15.1153 13.7974C15.191 13.7183 15.2335 13.6114 15.2335 13.4999C15.2335 13.3885 15.191 13.2816 15.1153 13.2025L9.02157 6.87439C8.94386 6.80528 8.84389 6.76916 8.74165 6.77326C8.6394 6.77736 8.54242 6.82138 8.47006 6.89651C8.39771 6.97165 8.35533 7.07237 8.35138 7.17854C8.34743 7.28472 8.38221 7.38853 8.44876 7.46924L13.8478 13.0781H1.01642C0.908674 13.0781 0.805343 13.1225 0.729156 13.2016C0.65297 13.2807 0.610168 13.3881 0.610168 13.4999C0.610168 13.6118 0.65297 13.7191 0.729156 13.7983C0.805343 13.8774 0.908674 13.9218 1.01642 13.9218H13.8478L8.44876 19.5306Z" fill="black"/>
</g>
<defs>
<clipPath id="clip0_29_79">
<rect width="26" height="27" fill="white" transform="translate(0.610168)"/>
</clipPath>
</defs>
</svg>
