<svg width="27" height="27" viewBox="0 0 27 27" fill="none" xmlns="http://www.w3.org/2000/svg">
<g clip-path="url(#clip0_29_258)">
<path d="M20.5164 25.6875H8.32886V1.3125H20.5164C20.6241 1.3125 20.7274 1.2697 20.8036 1.19351C20.8798 1.11733 20.9226 1.01399 20.9226 0.90625C20.9226 0.798506 20.8798 0.695175 20.8036 0.618988C20.7274 0.542801 20.6241 0.5 20.5164 0.5H4.26636C3.29666 0.5 2.36668 0.885211 1.681 1.57089C0.995318 2.25657 0.610107 3.18655 0.610107 4.15625L0.610107 22.8438C0.610107 23.8134 0.995318 24.7434 1.681 25.4291C2.36668 26.1148 3.29666 26.5 4.26636 26.5H20.5164C20.6241 26.5 20.7274 26.4572 20.8036 26.381C20.8798 26.3048 20.9226 26.2015 20.9226 26.0938C20.9226 25.986 20.8798 25.8827 20.8036 25.8065C20.7274 25.7303 20.6241 25.6875 20.5164 25.6875ZM1.42261 22.8438V4.15625C1.42261 3.40204 1.72222 2.67872 2.25552 2.14542C2.78883 1.61211 3.51215 1.3125 4.26636 1.3125H7.51636V25.6875H4.26636C3.51215 25.6875 2.78883 25.3879 2.25552 24.8546C1.72222 24.3213 1.42261 23.598 1.42261 22.8438Z" fill="black"/>
<path d="M26.4903 13.2137L20.3965 7.1199C20.3188 7.05335 20.2188 7.01857 20.1166 7.02252C20.0143 7.02647 19.9174 7.06885 19.845 7.14121C19.7727 7.21356 19.7303 7.31054 19.7263 7.41279C19.7224 7.51503 19.7571 7.615 19.8237 7.69272L25.2228 13.0938H12.3914C12.2836 13.0938 12.1803 13.1366 12.1041 13.2128C12.0279 13.289 11.9851 13.3923 11.9851 13.5001C11.9851 13.6078 12.0279 13.7111 12.1041 13.7873C12.1803 13.8635 12.2836 13.9063 12.3914 13.9063H25.2228L19.8237 19.3074C19.7812 19.3438 19.7466 19.3886 19.7222 19.439C19.6979 19.4894 19.6842 19.5443 19.682 19.6003C19.6798 19.6562 19.6893 19.712 19.7097 19.7642C19.7301 19.8163 19.7611 19.8636 19.8007 19.9032C19.8403 19.9428 19.8876 19.9738 19.9398 19.9942C19.9919 20.0146 20.0477 20.0241 20.1036 20.0219C20.1596 20.0198 20.2145 20.0061 20.2649 19.9817C20.3153 19.9573 20.3601 19.9227 20.3965 19.8802L26.4903 13.7865C26.5659 13.7104 26.6084 13.6074 26.6084 13.5001C26.6084 13.3927 26.5659 13.2898 26.4903 13.2137Z" fill="black"/>
</g>
<defs>
<clipPath id="clip0_29_258">
<rect width="26" height="26" fill="white" transform="translate(0.610107 0.5)"/>
</clipPath>
</defs>
</svg>
