<svg width="78" height="79" viewBox="0 0 78 79" fill="none" xmlns="http://www.w3.org/2000/svg">
<path d="M62.1644 16.2257C61.8776 15.9747 61.5427 15.7858 61.1804 15.6708C60.8181 15.5558 60.4362 15.5172 60.0584 15.5574C54.5615 16.1747 49.2007 17.6884 44.1854 20.0392C41.3284 21.6335 38.7036 23.6179 36.3854 25.9364C35.9727 26.3623 35.4154 26.6151 34.8254 26.6441C31.639 26.9501 28.5407 27.871 25.6994 29.3568C23.5968 30.358 21.6625 31.6846 19.9664 33.2882C19.6726 33.6431 19.475 34.0686 19.3929 34.5234C19.3109 34.9782 19.3473 35.4466 19.4984 35.883C19.6505 36.3431 19.9292 36.75 20.3022 37.0563C20.6751 37.3626 21.1268 37.5556 21.6044 37.6128L25.7774 38.2026C25.6939 38.6054 25.7145 39.0232 25.8375 39.4156C25.9604 39.8081 26.1815 40.1621 26.4794 40.4435L37.9064 51.9626C38.1878 52.2599 38.5391 52.4806 38.9277 52.6044C39.3164 52.7281 39.7298 52.7508 40.1294 52.6703L40.7144 56.8376C40.7788 57.3222 40.9777 57.7786 41.2882 58.1542C41.5987 58.5299 42.0082 58.8094 42.4694 58.9606C42.7396 59.0168 43.0183 59.0168 43.2884 58.9606C43.6315 58.9658 43.9718 58.8986 44.2875 58.7631C44.6032 58.6277 44.8873 58.4271 45.1214 58.1743C46.9508 56.3058 48.4539 54.1393 49.5674 51.7661C50.8438 49.1266 51.6365 46.2764 51.9074 43.3528C51.9341 42.7461 52.1844 42.1712 52.6094 41.7409C55.1256 39.1241 57.2773 36.1747 59.0054 32.9737C61.4435 28.2981 62.7782 23.1183 62.9054 17.8376C62.851 17.23 62.5891 16.6603 62.1644 16.2257ZM56.4704 31.9515C54.8706 34.7993 52.9323 37.4397 50.6984 39.8144C49.7729 40.7223 49.2049 41.9374 49.0994 43.2348C48.7922 45.8581 48.0124 48.4029 46.7984 50.7439C45.8982 52.6135 44.743 54.347 43.3664 55.8941L42.8984 50.6259C42.8632 50.306 42.738 50.0028 42.5376 49.752C42.3373 49.5013 42.0701 49.3135 41.7674 49.2106C41.6014 49.1656 41.4265 49.1656 41.2604 49.2106C40.814 49.2075 40.3777 49.345 40.0124 49.6038H39.8174L28.8194 38.7923C29.009 38.5368 29.139 38.2415 29.1997 37.9284C29.2605 37.6153 29.2505 37.2925 29.1704 36.9838C29.0554 36.7191 28.884 36.4833 28.6683 36.293C28.4526 36.1027 28.1979 35.9627 27.9224 35.883L22.6574 35.0967C24.0574 33.8431 25.6184 32.7852 27.2984 31.9515C29.7189 30.6271 32.3649 29.7736 35.0984 29.4354C36.3891 29.412 37.6255 28.9078 38.5694 28.0201C40.6735 25.8598 43.0462 23.9834 45.6284 22.4374C50.1984 20.3561 55.0705 19.0287 60.0584 18.506C59.8968 23.2053 58.6694 27.8048 56.4704 31.9515Z" fill="black"/>
<path d="M24.2564 46.8123C22.8586 47.1468 21.5569 47.8038 20.4538 48.7316C19.3507 49.6594 18.4763 50.8327 17.8994 52.1591C16.7872 54.7933 15.8491 57.4988 15.0914 60.2579C14.9751 60.6479 14.9515 61.0601 15.0225 61.461C15.0935 61.8619 15.2571 62.2404 15.5001 62.5658C15.7432 62.8912 16.0587 63.1543 16.4214 63.3339C16.784 63.5135 17.1834 63.6045 17.5874 63.5996C17.8199 63.6385 18.057 63.6385 18.2894 63.5996C21.5074 62.753 24.6408 61.608 27.6494 60.1792C28.7533 59.613 29.7076 58.79 30.4332 57.7782C31.1589 56.7663 31.6351 55.5949 31.8224 54.3607C31.9567 53.3224 31.8427 52.2668 31.4899 51.282C31.1371 50.2971 30.5558 49.4117 29.7944 48.6994C29.0964 47.9501 28.2259 47.3859 27.2599 47.0567C26.2939 46.7276 25.2623 46.6436 24.2564 46.8123ZM26.2844 57.5058C23.6577 58.779 20.9149 59.7928 18.0944 60.5331C18.7544 58.1083 19.5753 55.731 20.5514 53.4171C20.9331 52.5218 21.5099 51.7246 22.2391 51.0848C22.9683 50.445 23.8311 49.9791 24.7634 49.7216H25.3484C25.8046 49.7297 26.2543 49.8314 26.67 50.0207C27.0858 50.21 27.4588 50.4828 27.7664 50.8224C28.1852 51.2313 28.5076 51.7296 28.7101 52.2807C28.9126 52.8318 28.9899 53.4217 28.9364 54.0069C28.7785 54.7514 28.4587 55.4514 28.0001 56.0565C27.5415 56.6615 26.9556 57.1565 26.2844 57.5058Z" fill="black"/>
</svg>
