<svg width="41" height="41" viewBox="0 0 41 41" fill="none" xmlns="http://www.w3.org/2000/svg">
<path d="M38.4375 39.7188H2.5625C2.22269 39.7188 1.8968 39.5838 1.65652 39.3435C1.41624 39.1032 1.28125 38.7773 1.28125 38.4375V15.375C1.28125 15.0352 1.41624 14.7093 1.65652 14.469C1.8968 14.2287 2.22269 14.0938 2.5625 14.0938C2.90231 14.0938 3.2282 14.2287 3.46848 14.469C3.70876 14.7093 3.84375 15.0352 3.84375 15.375V37.1562H37.1562V15.375C37.1562 15.0352 37.2912 14.7093 37.5315 14.469C37.7718 14.2287 38.0977 14.0938 38.4375 14.0938C38.7773 14.0938 39.1032 14.2287 39.3435 14.469C39.5838 14.7093 39.7188 15.0352 39.7188 15.375V38.4375C39.7188 38.7773 39.5838 39.1032 39.3435 39.3435C39.1032 39.5838 38.7773 39.7188 38.4375 39.7188Z" fill="#101820"/>
<path d="M38.4376 16.6562C38.1706 16.6545 37.9108 16.5694 37.6945 16.4128L20.5001 4.13838L3.30574 16.4128C3.02989 16.5761 2.70282 16.6302 2.38908 16.5642C2.07535 16.4982 1.79776 16.3169 1.61111 16.0563C1.42446 15.7956 1.34232 15.4744 1.3809 15.1562C1.41947 14.8379 1.57597 14.5457 1.81949 14.3371L19.757 1.52463C19.974 1.37013 20.2337 1.28711 20.5001 1.28711C20.7665 1.28711 21.0262 1.37013 21.2432 1.52463L39.1807 14.3371C39.3995 14.4955 39.5626 14.7189 39.6468 14.9755C39.731 15.2321 39.732 15.5088 39.6496 15.766C39.5671 16.0231 39.4056 16.2477 39.1879 16.4076C38.9703 16.5674 38.7077 16.6545 38.4376 16.6562Z" fill="#101820"/>
<path d="M20.5001 28.8795C19.7024 28.8917 18.9215 28.6493 18.2707 28.1876L1.81949 16.413C1.57597 16.2044 1.41947 15.9122 1.3809 15.5939C1.34232 15.2757 1.42446 14.9545 1.61111 14.6938C1.79776 14.4332 2.07535 14.2519 2.38908 14.1859C2.70282 14.1199 3.02989 14.174 3.30574 14.3373L19.757 26.0864C19.974 26.2409 20.2337 26.3239 20.5001 26.3239C20.7665 26.3239 21.0262 26.2409 21.2432 26.0864L37.6945 14.3373C37.8294 14.2218 37.9869 14.1356 38.1569 14.0842C38.3269 14.0328 38.5057 14.0172 38.682 14.0386C38.8583 14.06 39.0283 14.1178 39.1811 14.2083C39.3339 14.2989 39.4662 14.4202 39.5696 14.5646C39.673 14.709 39.7452 14.8734 39.7817 15.0472C39.8182 15.221 39.8182 15.4005 39.7816 15.5743C39.7451 15.7481 39.6728 15.9124 39.5693 16.0568C39.4659 16.2012 39.3336 16.3225 39.1807 16.413L22.7295 28.1876C22.0788 28.6493 21.2979 28.8917 20.5001 28.8795Z" fill="#101820"/>
<path d="M13.3796 27.1148L1.84473 34.8047L3.26614 36.9368L14.801 29.247L13.3796 27.1148Z" fill="#101820"/>
<path d="M27.6101 27.1208L26.1887 29.2529L37.7235 36.9428L39.145 34.8107L27.6101 27.1208Z" fill="#101820"/>
<path d="M29.4688 14.0938H11.5312V16.6562H29.4688V14.0938Z" fill="#101820"/>
</svg>
