<svg width="48" height="48" viewBox="0 0 48 48" fill="none" xmlns="http://www.w3.org/2000/svg">
<path d="M4.55872 43.4556C4.93788 33.0608 13.5131 24.7212 24 24.7212C34.487 24.7212 43.0604 33.0608 43.4413 43.4556H4.55872ZM14.6364 13.91C14.6364 8.74541 18.8372 4.54638 24 4.54638C29.1629 4.54638 33.3637 8.74541 33.3637 13.91C33.3637 19.0729 29.1629 23.2719 24 23.2719C18.8372 23.2719 14.6364 19.0729 14.6364 13.91ZM28.4152 23.7609C32.1766 22.0671 34.8041 18.2933 34.8041 13.91C34.8041 7.95167 29.9584 3.10596 24 3.10596C18.0417 3.10596 13.1942 7.95167 13.1942 13.91C13.1942 18.2933 15.8235 22.0671 19.5831 23.7609C10.1769 25.7931 3.10413 34.1699 3.10413 44.1767C3.10413 44.5753 3.42658 44.8978 3.82345 44.8978H44.1748C44.5735 44.8978 44.8959 44.5753 44.8959 44.1767C44.8959 34.1699 37.8232 25.7931 28.4152 23.7609Z" fill="black"/>
</svg>
