<svg width="41" height="41" viewBox="0 0 41 41" fill="none" xmlns="http://www.w3.org/2000/svg">
<g clip-path="url(#clip0_60_452)">
<path d="M38.4375 5.97949H2.5625C1.88288 5.97949 1.2311 6.24947 0.750539 6.73003C0.269977 7.21059 0 7.86237 0 8.54199L0 32.4587C0 33.1383 0.269977 33.7901 0.750539 34.2706C1.2311 34.7512 1.88288 35.0212 2.5625 35.0212H38.4375C39.1171 35.0212 39.7689 34.7512 40.2495 34.2706C40.73 33.7901 41 33.1383 41 32.4587V8.54199C41 7.86237 40.73 7.21059 40.2495 6.73003C39.7689 6.24947 39.1171 5.97949 38.4375 5.97949ZM37.8908 7.68783L20.5 21.1324L3.10917 7.68783H37.8908ZM1.70833 32.1084V8.76408L14.871 18.9372L1.70833 32.1084ZM2.91271 33.3128L16.2292 19.9964L19.9704 22.892C20.1198 23.007 20.303 23.0693 20.4915 23.0693C20.6799 23.0693 20.8631 23.007 21.0125 22.892L24.7708 19.9964L38.0873 33.3128H2.91271ZM39.2917 32.1084L26.129 18.9372L39.2917 8.76408V32.1084Z" fill="black"/>
</g>
<defs>
<clipPath id="clip0_60_452">
<rect width="41" height="41" fill="white"/>
</clipPath>
</defs>
</svg>
