<svg width="41" height="41" viewBox="0 0 41 41" fill="none" xmlns="http://www.w3.org/2000/svg">
<g clip-path="url(#clip0_57_55)">
<path d="M27.375 4.875H26.125V1.75H14.875V4.875H13.625V1.125C13.625 0.95924 13.6908 0.800269 13.8081 0.683058C13.9253 0.565848 14.0842 0.5 14.25 0.5H26.75C26.9158 0.5 27.0747 0.565848 27.1919 0.683058C27.3092 0.800269 27.375 0.95924 27.375 1.125V4.875Z" fill="black"/>
<path d="M38.625 9.25H37.375V7.375H3.625V9.25H2.375V6.75C2.375 6.58424 2.44085 6.42527 2.55806 6.30806C2.67527 6.19085 2.83424 6.125 3 6.125H38C38.1658 6.125 38.3247 6.19085 38.4419 6.30806C38.5592 6.42527 38.625 6.58424 38.625 6.75V9.25Z" fill="black"/>
<path d="M34.25 40.5H6.75C6.58424 40.5 6.42527 40.4342 6.30806 40.3169C6.19085 40.1997 6.125 40.0408 6.125 39.875V9.875H7.375V39.25H33.625V9.875H34.875V39.875C34.875 40.0408 34.8092 40.1997 34.6919 40.3169C34.5747 40.4342 34.4158 40.5 34.25 40.5Z" fill="black"/>
<path d="M21.125 14.25H19.875V34.25H21.125V14.25Z" fill="black"/>
<path d="M13.625 16.125H12.375V32.375H13.625V16.125Z" fill="black"/>
<path d="M28.625 16.125H27.375V32.375H28.625V16.125Z" fill="black"/>
</g>
<defs>
<clipPath id="clip0_57_55">
<rect width="40" height="40" fill="white" transform="translate(0.5 0.5)"/>
</clipPath>
</defs>
</svg>
