<svg width="49" height="49" viewBox="0 0 49 49" fill="none" xmlns="http://www.w3.org/2000/svg">
<path d="M12.528 28.9697L12.5669 29.0087" stroke="#303030" stroke-width="0.7" stroke-miterlimit="10" stroke-linecap="round" stroke-linejoin="round"/>
<path d="M38.4367 26.614C38.3385 26.7799 38.2361 26.9433 38.1296 27.104C37.7742 27.6397 37.4125 28.1716 37.0555 28.7065C36.6685 29.2862 36.2815 29.8659 35.8945 30.4457C35.4351 31.1339 34.9757 31.8221 34.5164 32.5103C34.013 33.2643 33.5097 34.0183 33.0064 34.7722C32.4876 35.5494 31.9688 36.3266 31.4501 37.1038C30.9442 37.8615 30.4384 38.6193 29.9326 39.377C29.4682 40.0727 29.0038 40.7684 28.5394 41.4641C28.1449 42.0551 27.7504 42.6461 27.3559 43.2371C27.0597 43.6809 26.7635 44.1246 26.4673 44.5683C26.2979 44.8221 26.1285 45.0759 25.9591 45.3296C25.9301 45.373 25.9014 45.4165 25.8722 45.4598C25.3163 46.2926 24.0924 46.2926 23.5365 45.4598C23.4714 45.3622 23.4062 45.2645 23.341 45.1669C23.1591 44.8944 22.9773 44.622 22.7954 44.3495C22.517 43.9324 22.2386 43.5154 21.9602 43.0984C21.6055 42.567 21.2509 42.0357 20.8962 41.5044C20.4854 40.889 20.0746 40.2737 19.6639 39.6583C19.2173 38.9892 18.7706 38.3201 18.324 37.6509C17.8616 36.9584 17.3993 36.2657 16.937 35.5731C16.4792 34.8873 16.0214 34.2015 15.5636 33.5157C15.1305 32.8669 14.6975 32.2182 14.2644 31.5694C13.8763 30.988 13.4881 30.4065 13.1 29.8251C12.777 29.3412 12.4541 28.8574 12.1311 28.3735C11.8834 28.0024 11.6393 27.6281 11.3883 27.2595C10.6639 26.1956 10.1273 25.0198 9.73263 23.7956C9.33369 22.558 9.09324 21.2707 9.01345 19.9731C8.99332 19.6457 8.98334 19.3177 8.98334 18.9897C8.98334 10.3162 16.0132 3.2666 24.7064 3.2666C33.3799 3.2666 40.4295 10.3163 40.4295 18.9897C40.4295 20.4282 40.2353 21.8661 39.8448 23.2509C39.515 24.4207 39.0571 25.5667 38.4367 26.614Z" stroke="#303030" stroke-width="0.7" stroke-miterlimit="10" stroke-linecap="round" stroke-linejoin="round"/>
<path d="M35.9989 14.5781C36.287 15.5887 36.4211 16.6613 36.375 17.7676" stroke="#303030" stroke-width="0.7" stroke-miterlimit="10" stroke-linecap="round" stroke-linejoin="round"/>
<path d="M26.6923 7.24219C30.0883 7.38379 33.0269 9.19109 34.7521 11.8425" stroke="#303030" stroke-width="0.7" stroke-miterlimit="10" stroke-linecap="round" stroke-linejoin="round"/>
<path d="M25.1032 26.9572C28.5658 26.7381 31.1953 23.7533 30.9761 20.2906C30.757 16.8279 27.7723 14.1985 24.3096 14.4177C20.8469 14.6368 18.2174 17.6215 18.4366 21.0842C18.6557 24.5469 21.6405 27.1763 25.1032 26.9572Z" stroke="#303030" stroke-width="0.7" stroke-miterlimit="10" stroke-linecap="round" stroke-linejoin="round"/>
</svg>
