<svg width="28" height="27" viewBox="0 0 28 27" fill="none" xmlns="http://www.w3.org/2000/svg">
<path d="M3.17441 24.4437C3.38769 18.5967 8.21125 13.9056 14.1102 13.9056C20.0091 13.9056 24.8316 18.5967 25.0459 24.4437H3.17441ZM8.8431 7.82436C8.8431 4.91926 11.206 2.55731 14.1102 2.55731C17.0143 2.55731 19.3772 4.91926 19.3772 7.82436C19.3772 10.7285 17.0143 13.0904 14.1102 13.0904C11.206 13.0904 8.8431 10.7285 8.8431 7.82436ZM16.5937 13.3655C18.7095 12.4127 20.1874 10.29 20.1874 7.82436C20.1874 4.47278 17.4617 1.74707 14.1102 1.74707C10.7586 1.74707 8.03186 4.47278 8.03186 7.82436C8.03186 10.29 9.51082 12.4127 11.6256 13.3655C6.33464 14.5086 2.3562 19.2205 2.3562 24.8493C2.3562 25.0736 2.53758 25.255 2.76082 25.255H25.4585C25.6827 25.255 25.8641 25.0736 25.8641 24.8493C25.8641 19.2205 21.8857 14.5086 16.5937 13.3655Z" fill="black"/>
</svg>
