<svg width="26" height="26" viewBox="0 0 26 26" fill="none" xmlns="http://www.w3.org/2000/svg">
<path d="M13 2.1665C7.12727 2.1665 2.16669 7.12817 2.16669 12.9998C2.16669 18.8715 7.12727 23.8332 13 23.8332C18.8728 23.8332 23.8334 18.8715 23.8334 12.9998C23.8334 7.12817 18.8728 2.1665 13 2.1665ZM13 16.2498C14.0747 16.2498 15.0042 15.9628 15.4841 15.4828L17.0159 17.0158C15.7961 18.2345 13.9761 18.4165 13 18.4165C10.0133 18.4165 7.58335 15.9866 7.58335 12.9998C7.58335 10.0131 10.0133 7.58317 13 7.58317C13.9761 7.58317 15.7972 7.76517 17.0159 8.98392L15.4841 10.5158C15.0053 10.0358 14.0758 9.74984 13 9.74984C11.2385 9.74984 9.75002 11.2383 9.75002 12.9998C9.75002 14.7613 11.2385 16.2498 13 16.2498Z" fill="#434444"/>
</svg>
