<svg width="51" height="50" viewBox="0 0 51 50" fill="none" xmlns="http://www.w3.org/2000/svg">
<g clip-path="url(#clip0_29_58)">
<path d="M50.25 25.1519C50.25 11.3447 39.0571 0.151855 25.25 0.151855C11.4429 0.151855 0.25 11.3447 0.25 25.1519C0.25 37.6301 9.39219 47.9727 21.3438 49.8481V32.3784H14.9961V25.1519H21.3438V19.644C21.3438 13.3784 25.0761 9.91748 30.7866 9.91748C33.5219 9.91748 36.3828 10.4058 36.3828 10.4058V16.5581H33.2304C30.1248 16.5581 29.1562 18.4852 29.1562 20.4622V25.1519H36.0898L34.9814 32.3784H29.1562V49.8481C41.1079 47.9727 50.25 37.6301 50.25 25.1519Z" fill="black"/>
</g>
<defs>
<clipPath id="clip0_29_58">
<rect width="50" height="50" fill="white" transform="translate(0.25)"/>
</clipPath>
</defs>
</svg>
