<svg width="51" height="50" viewBox="0 0 51 50" fill="none" xmlns="http://www.w3.org/2000/svg">
<g clip-path="url(#clip0_29_53)">
<path fill-rule="evenodd" clip-rule="evenodd" d="M25.25 50C39.0571 50 50.25 38.8071 50.25 25C50.25 11.1929 39.0571 0 25.25 0C11.4429 0 0.25 11.1929 0.25 25C0.25 38.8071 11.4429 50 25.25 50Z" fill="black"/>
<path fill-rule="evenodd" clip-rule="evenodd" d="M25.3094 38.5177C22.9257 38.5177 20.6863 37.9084 18.738 36.8392L11.2115 39.2309L13.6651 31.9933C12.4275 29.9604 11.7146 27.5764 11.7146 25.0281C11.7146 17.578 17.8011 11.5386 25.3097 11.5386C32.8174 11.5386 38.9039 17.578 38.9039 25.0281C38.9039 32.4783 32.8177 38.5177 25.3094 38.5177ZM25.3094 13.6869C19.0066 13.6869 13.8799 18.7746 13.8799 25.0281C13.8799 27.5097 14.6888 29.8078 16.0568 31.6777L14.6291 35.8893L19.0211 34.4933C20.826 35.6783 22.9879 36.3693 25.3094 36.3693C31.6112 36.3693 36.7389 31.282 36.7389 25.0284C36.7389 18.7749 31.6112 13.6869 25.3094 13.6869ZM32.174 28.1349C32.0903 27.9973 31.8682 27.9143 31.5355 27.749C31.202 27.5838 29.5632 26.7835 29.2583 26.6737C28.9525 26.5635 28.73 26.5078 28.5082 26.8389C28.2863 27.17 27.6475 27.9143 27.4528 28.1349C27.2583 28.3558 27.0642 28.3835 26.7309 28.218C26.398 28.0527 25.3242 27.7035 24.0509 26.577C23.0605 25.7007 22.3915 24.6189 22.1974 24.2875C22.0029 23.9567 22.1768 23.778 22.3435 23.6133C22.4934 23.465 22.6768 23.2272 22.8435 23.0343C23.0103 22.841 23.0657 22.7035 23.1765 22.4826C23.2879 22.262 23.2322 22.069 23.1488 21.9032C23.0654 21.738 22.3986 20.1109 22.1211 19.4487C21.8435 18.7872 21.5663 18.8973 21.3715 18.8973C21.1771 18.8973 20.9549 18.8697 20.7328 18.8697C20.5106 18.8697 20.1494 18.9524 19.8439 19.2832C19.5386 19.6143 18.678 20.4143 18.678 22.041C18.678 23.6681 19.8715 25.2401 20.0386 25.4604C20.2051 25.6807 22.3432 29.1281 25.7306 30.4521C29.1192 31.7758 29.1192 31.3343 29.7303 31.2792C30.3405 31.2241 31.7011 30.4795 31.9795 29.7075C32.2568 28.9349 32.2568 28.2727 32.174 28.1349Z" fill="white"/>
</g>
<defs>
<clipPath id="clip0_29_53">
<rect width="50" height="50" fill="white" transform="translate(0.25)"/>
</clipPath>
</defs>
</svg>
