<svg width="40" height="39" viewBox="0 0 40 39" fill="none" xmlns="http://www.w3.org/2000/svg">
<path d="M17.3297 26.9072C19.5204 26.9498 21.3225 29.5205 20.284 31.6743C19.4127 33.481 16.742 34.1264 15.1409 32.7726C13.16 31.0975 14.0806 26.9686 17.2438 26.9072C17.2871 26.9069 17.2868 26.9069 17.3297 26.9072ZM30.483 26.9072C32.6736 26.9498 34.4758 29.5205 33.4373 31.6743C32.5663 33.481 29.8956 34.1264 28.2945 32.7726C26.3133 31.0975 27.2342 26.9686 30.3971 26.9072C30.4401 26.9069 30.4401 26.9069 30.483 26.9072ZM17.2596 28.1165C15.6533 28.1477 14.4658 30.4351 15.8087 31.7465C17.1287 33.0351 20.304 31.6168 19.1944 29.3158C18.8462 28.5936 18.071 28.1114 17.2596 28.1165ZM30.4129 28.1165C28.809 28.1477 27.6191 30.4351 28.9623 31.7465C30.2819 33.0351 33.4573 31.6168 32.348 29.3158C31.9998 28.5936 31.2249 28.1114 30.4129 28.1165ZM35.8774 25.9999H13.0838C12.1763 25.9824 11.6079 24.7027 12.37 24.0375L14.6538 22.1235C13.6356 17.5536 12.692 12.9667 11.5988 8.41428C11.3461 7.40966 10.3829 6.65687 9.348 6.65112H4.13771C3.49467 6.60517 3.38311 5.49594 4.13771 5.44182C5.88788 5.44182 7.63804 5.43245 9.38821 5.44212C10.9564 5.46752 12.4097 6.61091 12.7824 8.16305L13.255 10.2839C13.271 10.2817 13.2873 10.2799 13.3039 10.279C20.3687 10.279 27.4334 10.2346 34.4982 10.279C35.5297 10.2987 36.4491 11.1978 36.4814 12.2372C36.5274 14.5823 36.4823 16.9284 36.4823 19.2738C36.4696 20.2754 35.6646 21.1712 34.6506 21.2722L15.5662 22.9365L13.3541 24.7906H35.8774C35.8798 24.7909 36.2254 24.8179 36.3862 25.0685C36.6175 25.4285 36.3402 25.9667 35.8774 25.9999ZM13.5231 11.4883L15.799 21.7027C22.0535 21.1609 28.3144 20.6866 34.5617 20.0656C34.9459 20.0184 35.2588 19.6786 35.2727 19.2898C35.3018 16.9459 35.3456 14.6005 35.2724 12.2577C35.254 11.8511 34.8954 11.4962 34.4828 11.4883H13.5231Z" fill="black"/>
</svg>
