<svg width="64" height="65" viewBox="0 0 64 65" fill="none" xmlns="http://www.w3.org/2000/svg">
<path d="M53.0289 51.442C52.6199 51.0855 52.3849 50.562 52.3849 50.006V23.803C52.3849 23.783 52.3894 23.7625 52.3899 23.7425C52.4244 23.6745 52.4484 23.601 52.4484 23.5195C52.4484 23.473 52.4339 23.431 52.4219 23.3885C52.4929 22.9825 52.6669 22.5645 52.9504 22.121C53.3704 21.4645 53.5924 20.7035 53.5924 19.9195V18.937C53.5924 15.984 51.2984 13.5615 48.3994 13.345C48.3119 12.847 48.2549 12.3555 48.2319 11.8755C49.7384 11.7295 50.9199 10.457 50.9199 8.9135V7.477C50.9199 5.8355 49.5844 4.5 47.9429 4.5H16.0539C14.4124 4.5 13.0769 5.8355 13.0769 7.477V8.9135C13.0769 10.4575 14.2584 11.73 15.7649 11.8755C15.7424 12.3535 15.6859 12.843 15.5989 13.339C12.6439 13.497 10.2864 15.9435 10.2864 18.9375V19.92C10.2864 20.8105 10.5644 21.656 11.0909 22.3645C11.5219 22.945 11.6124 23.6605 11.6124 24.159V50.006C11.6124 50.562 11.3774 51.085 10.9684 51.4415C10.1589 52.1465 9.69489 53.1605 9.69489 54.223V56.3805C9.69489 58.6515 11.5429 60.4995 13.8139 60.4995H50.1834C52.4544 60.4995 54.3024 58.6515 54.3024 56.3805V54.223C54.3024 53.1605 53.8379 52.1465 53.0289 51.442ZM12.6029 24.02H51.3849V47.881H12.6124V24.159C12.6124 24.111 12.6039 24.067 12.6029 24.02ZM14.0769 8.9135V7.477C14.0769 6.387 14.9639 5.5 16.0539 5.5H47.9424C49.0324 5.5 49.9194 6.387 49.9194 7.477V8.9135C49.9194 10.0035 49.0324 10.8905 47.9424 10.8905H47.7434C47.7344 10.89 47.7269 10.8855 47.7179 10.8855C47.7089 10.8855 47.7014 10.89 47.6924 10.8905H16.3039C16.2949 10.89 16.2874 10.8855 16.2784 10.8855C16.2694 10.8855 16.2619 10.89 16.2529 10.8905H16.0539C14.9639 10.89 14.0769 10.0035 14.0769 8.9135ZM11.2864 19.9195V18.937C11.2864 16.393 13.3564 14.3235 15.9004 14.3235H16.0189C16.0824 14.3235 16.1434 14.3095 16.2004 14.287C16.2204 14.279 16.2364 14.2665 16.2554 14.2565C16.2899 14.2375 16.3229 14.2175 16.3519 14.1915C16.3699 14.1755 16.3839 14.157 16.3989 14.138C16.4219 14.11 16.4424 14.0815 16.4594 14.0485C16.4714 14.025 16.4799 14.0015 16.4879 13.9765C16.4939 13.959 16.5044 13.944 16.5084 13.9255C16.6514 13.2365 16.7359 12.5545 16.7654 11.8905H47.2324C47.2619 12.5545 47.3459 13.236 47.4894 13.9255C47.4934 13.944 47.5039 13.959 47.5099 13.9765C47.5179 14.0015 47.5269 14.025 47.5384 14.0485C47.5554 14.0815 47.5754 14.11 47.5989 14.138C47.6144 14.1565 47.6284 14.175 47.6459 14.1915C47.6754 14.218 47.7079 14.238 47.7424 14.2565C47.7609 14.2665 47.7774 14.2795 47.7974 14.287C47.8544 14.3095 47.9149 14.3235 47.9784 14.3235C50.5224 14.3235 52.5929 16.393 52.5929 18.937V19.9195C52.5929 20.512 52.4254 21.087 52.1084 21.5825C51.7999 22.065 51.6004 22.5455 51.4889 23.0195H12.4659C12.3469 22.5525 12.1599 22.1265 11.8939 21.768C11.4964 21.233 11.2864 20.594 11.2864 19.9195ZM53.3024 56.381C53.3024 58.101 51.9034 59.5 50.1834 59.5H13.8134C12.0934 59.5 10.6944 58.101 10.6944 56.381V54.2235C10.6944 53.45 11.0334 52.711 11.6249 52.196C12.2524 51.6495 12.6124 50.8515 12.6124 50.0065V48.8815H51.3849V50.0065C51.3849 50.8515 51.7449 51.65 52.3724 52.1965C52.9639 52.711 53.3029 53.45 53.3029 54.224L53.3024 56.381Z" fill="black"/>
<path d="M29.2404 41.0981C29.8324 41.0981 30.4194 41.0401 30.9844 40.9256C31.6889 40.7836 32.3474 40.8851 32.8379 41.2121C33.8139 41.8636 35.0584 42.2226 36.3424 42.2226C39.3919 42.2226 41.8734 40.2196 41.8734 37.7571C41.8734 35.3011 39.3924 33.3036 36.3424 33.3036C36.1684 33.3036 36.0124 33.3091 35.8699 33.3196C34.8159 31.1281 32.2089 29.6816 29.2399 29.6816C25.3154 29.6816 22.1229 32.2426 22.1229 35.3901C22.1229 38.5376 25.3159 41.0981 29.2404 41.0981ZM29.2404 30.6816C31.9179 30.6816 34.3254 32.0641 35.0954 34.0441C35.1829 34.2686 35.4159 34.3971 35.6544 34.3541C35.8354 34.3201 36.0544 34.3036 36.3424 34.3036C38.8409 34.3036 40.8734 35.8531 40.8734 37.7571C40.8734 39.6681 38.8409 41.2226 36.3424 41.2226C35.2539 41.2226 34.2064 40.9236 33.3929 40.3806C32.8809 40.0391 32.2594 39.8631 31.5924 39.8631C31.3294 39.8631 31.0594 39.8906 30.7859 39.9461C30.2859 40.0471 29.7659 40.0986 29.2404 40.0986C25.8674 40.0986 23.1234 37.9866 23.1234 35.3901C23.1234 32.7936 25.8674 30.6816 29.2404 30.6816Z" fill="black"/>
<path d="M31.9984 46.1463C39.9434 46.1463 46.4069 41.5733 46.4069 35.9518C46.4069 30.3303 39.9434 25.7573 31.9984 25.7573C24.0534 25.7573 17.5899 30.3303 17.5899 35.9518C17.5899 41.5733 24.0534 46.1463 31.9984 46.1463ZM31.9984 26.7573C39.3919 26.7573 45.4069 30.8823 45.4069 35.9518C45.4069 41.0213 39.3919 45.1463 31.9984 45.1463C24.6049 45.1463 18.5899 41.0213 18.5899 35.9518C18.5899 30.8823 24.6049 26.7573 31.9984 26.7573Z" fill="black"/>
<path d="M25.1234 35.1783C25.2014 35.2228 25.2869 35.2443 25.3709 35.2443C25.5444 35.2443 25.7134 35.1538 25.8054 34.9923C25.8644 34.8893 27.2769 32.4813 29.8559 33.6378C30.1079 33.7513 30.4039 33.6383 30.5169 33.3863C30.6299 33.1343 30.5169 32.8383 30.2654 32.7253C27.5484 31.5078 25.5919 33.3508 24.9379 34.4963C24.8004 34.7363 24.8834 35.0413 25.1234 35.1783Z" fill="black"/>
<path d="M34.8864 39.3184C35.2539 39.5064 35.8069 39.6724 36.4254 39.6724C37.3694 39.6724 38.4659 39.2859 39.2869 37.9999C39.4354 37.7674 39.3674 37.4584 39.1344 37.3094C38.9019 37.1609 38.5929 37.2294 38.4439 37.4619C37.2609 39.3149 35.5334 38.5239 35.3399 38.4274C35.0934 38.3029 34.7939 38.4004 34.6689 38.6459C34.5434 38.8914 34.6409 39.1929 34.8864 39.3184Z" fill="black"/>
<path d="M13.4879 19.7075C13.5184 19.713 13.5484 19.7155 13.5779 19.7155C13.8149 19.7155 14.0254 19.5465 14.0694 19.305C14.3954 17.5085 16.0274 17.22 16.0974 17.2085C16.3689 17.1655 16.5549 16.911 16.5134 16.639C16.4719 16.366 16.2179 16.1795 15.9434 16.2205C15.1144 16.347 13.4504 17.1175 13.0859 19.1265C13.0359 19.398 13.2159 19.658 13.4879 19.7075Z" fill="black"/>
<path d="M14.2719 53.333C14.4409 53.1165 14.4044 52.804 14.1889 52.6335C13.9724 52.462 13.6579 52.4985 13.4864 52.7145C13.4229 52.795 11.9459 54.71 13.4359 57.531C13.5254 57.701 13.6989 57.7975 13.8784 57.7975C13.9569 57.7975 14.0369 57.779 14.1114 57.7395C14.3559 57.6105 14.4489 57.308 14.3199 57.064C13.1474 54.8425 14.2234 53.396 14.2719 53.333Z" fill="black"/>
</svg>
