<svg width="51" height="50" viewBox="0 0 51 50" fill="none" xmlns="http://www.w3.org/2000/svg">
<path d="M46.3481 21.591C39.542 21.5876 32.7358 21.5893 25.9297 21.5901C25.9306 24.4131 25.9263 27.2361 25.9314 30.0582C29.873 30.0573 33.8147 30.0565 37.7555 30.0582C37.2987 32.7634 35.6911 35.2372 33.4113 36.7601C31.9781 37.7237 30.3315 38.3492 28.634 38.6466C26.9255 38.9381 25.1601 38.9755 23.4559 38.6304C21.7228 38.2846 20.0684 37.5626 18.6252 36.5447C16.3176 34.9235 14.5564 32.5514 13.6522 29.8818C12.7275 27.1665 12.7208 24.1452 13.6564 21.4324C14.3056 19.5205 15.3861 17.7543 16.8056 16.317C18.5565 14.5245 20.8329 13.2432 23.2855 12.7177C25.3855 12.2694 27.6 12.355 29.6561 12.977C31.4036 13.5076 33.0147 14.4652 34.3342 15.7254C35.6681 14.399 36.9953 13.0651 38.3267 11.7363C39.0251 11.0211 39.759 10.3371 40.4353 9.60237C38.4132 7.73108 36.0428 6.22684 33.4528 5.27594C28.7899 3.55987 23.5313 3.52344 18.8371 5.14815C13.547 6.95921 9.04264 10.9152 6.54517 15.9155C5.67567 17.6384 5.04085 19.4774 4.6595 21.369C3.70013 26.0818 4.36881 31.1066 6.54261 35.3991C7.95538 38.2008 9.98084 40.6916 12.4377 42.6442C14.7556 44.4926 17.4574 45.8579 20.3219 46.6198C23.9364 47.5893 27.784 47.5673 31.4223 46.7393C34.7105 45.9825 37.8216 44.4113 40.3056 42.118C42.9311 39.7052 44.804 36.5262 45.7956 33.11C46.877 29.3837 47.0262 25.4055 46.3481 21.591Z" fill="black"/>
</svg>
