<svg width="54" height="55" viewBox="0 0 54 55" fill="none" xmlns="http://www.w3.org/2000/svg">
<path d="M30.1784 3.54736H23.7522C12.9534 3.74611 4.27469 12.7561 4.47344 23.6211C4.67219 34.2211 13.2184 42.7674 23.8184 42.9661H42.1034L49.9209 51.1149V23.2899C49.8547 12.4249 41.0434 3.61361 30.1784 3.54736ZM47.9334 46.1461L42.8984 40.9786H23.8184C14.0134 40.9786 6.12969 33.0286 6.12969 23.2899C6.12969 13.4849 14.0797 5.60111 23.8184 5.60111H30.2447C39.9834 5.60111 47.9334 13.5511 47.9334 23.2899V46.1461Z" fill="black"/>
<path d="M37.9959 17.7251H16.0671V19.7126H37.9959V17.7251Z" fill="black"/>
<path d="M37.9959 25.4761H16.0671V27.4636H37.9959V25.4761Z" fill="black"/>
</svg>
