<svg width="43" height="48" viewBox="0 0 43 48" fill="none" xmlns="http://www.w3.org/2000/svg">
<path d="M30.997 14.8799V11.5799C30.8554 7.01992 26.3262 3.35992 20.9477 3.47992C15.7816 3.59992 11.6062 7.13992 11.4647 11.5799V14.8799H3.68005V44.7599H38.9231V14.8799H30.997ZM13.517 11.5799C13.6585 7.97992 17.197 5.15992 21.4431 5.27992C25.477 5.39992 28.7324 8.15992 28.8739 11.5799V14.8799H13.517V11.5799ZM36.7293 42.9599H5.73236V16.6799H36.7293V42.9599Z" fill="black"/>
<path d="M21.0185 29.8198C19.037 29.8198 17.4093 31.1998 17.4093 32.8798C17.4093 34.1998 18.4001 35.3398 19.8862 35.7598V39.1198C19.8862 39.6598 20.3816 40.0798 21.0185 40.0798C21.6555 40.0798 22.1508 39.6598 22.1508 39.1198V35.7598C24.0616 35.2198 25.0524 33.4798 24.4155 31.9198C23.9201 30.6598 22.5755 29.8198 21.0185 29.8198Z" fill="black"/>
<path d="M22.2216 21.6599H30.8554V29.2799H32.9785V19.8599H22.2216V21.6599Z" fill="black"/>
</svg>
