<svg width="42" height="42" viewBox="0 0 42 42" fill="none" xmlns="http://www.w3.org/2000/svg">
<path d="M39.1188 29.4545L34.86 25.1747C34.3614 24.6764 33.6854 24.3964 32.9805 24.3964C32.2756 24.3964 31.5995 24.6764 31.101 25.1747L26.649 29.6057L12.3942 15.3509L16.8294 10.9199C17.3264 10.4215 17.6056 9.74638 17.6056 9.04251C17.6056 8.33863 17.3264 7.66348 16.8294 7.1651L12.5454 2.8769C12.0468 2.37857 11.3708 2.09863 10.6659 2.09863C9.96097 2.09863 9.28493 2.37857 8.78638 2.8769L2.87698 8.78631C2.63052 9.03288 2.43505 9.32559 2.30173 9.64772C2.16841 9.96984 2.09986 10.3151 2.09998 10.6637V11.3987C2.17138 13.5617 3.14578 16.3253 4.93498 19.4123C7.09313 23.0242 9.70431 26.3454 12.705 29.2949C15.6434 32.2834 18.9502 34.8859 22.5456 37.0397C25.62 38.8289 28.3836 39.8075 30.5508 39.8999H31.3362C32.0362 39.9006 32.7081 39.6243 33.2052 39.1313L39.123 33.2135C39.6187 32.7153 39.8971 32.0411 39.8971 31.3382C39.8971 30.6354 39.6187 29.9611 39.123 29.4629L39.1188 29.4545ZM38.2788 32.3945L32.3736 38.2913C32.221 38.4422 32.0376 38.5582 31.836 38.6315C31.6744 38.6901 31.5038 38.72 31.332 38.7197H30.5928C28.623 38.6399 26.04 37.7033 23.142 36.0191C19.6354 33.9162 16.4105 31.3758 13.545 28.4591C10.6252 25.5823 8.08471 22.3445 5.98498 18.8243C4.30498 15.9095 3.37258 13.3307 3.30958 11.3609V10.6637C3.29766 10.4954 3.31471 10.3264 3.35998 10.1639C3.43431 9.96056 3.55181 9.77572 3.70438 9.62211L9.61798 3.7127C9.75542 3.57404 9.91898 3.46396 10.0992 3.38885C10.2794 3.31373 10.4727 3.27506 10.668 3.27506C10.8632 3.27506 11.0565 3.31373 11.2368 3.38885C11.417 3.46396 11.5805 3.57404 11.718 3.7127L15.9894 7.97991C16.128 8.11735 16.2381 8.28091 16.3132 8.46113C16.3883 8.64135 16.427 8.83466 16.427 9.02991C16.427 9.22515 16.3883 9.41847 16.3132 9.59868C16.2381 9.7789 16.128 9.94246 15.9894 10.0799L11.5584 14.5151L10.7184 15.3551L11.5584 16.1951L25.8132 30.4415L26.6532 31.2815L27.4932 30.4415L31.92 26.0105C32.0571 25.8713 32.2206 25.7608 32.4009 25.6854C32.5811 25.6099 32.7746 25.5711 32.97 25.5711C33.1654 25.5711 33.3588 25.6099 33.5391 25.6854C33.7194 25.7608 33.8828 25.8713 34.02 26.0105L38.2872 30.2903C38.4258 30.4278 38.5359 30.5913 38.611 30.7715C38.6861 30.9517 38.7248 31.1451 38.7248 31.3403C38.7248 31.5356 38.6861 31.7289 38.611 31.9091C38.5359 32.0893 38.4258 32.2529 38.2872 32.3903L38.2788 32.3945Z" fill="black"/>
</svg>
