<svg width="41" height="41" viewBox="0 0 41 41" fill="none" xmlns="http://www.w3.org/2000/svg">
<path d="M38.0972 8.815C36.146 9.8808 33.9531 10.4259 31.7299 10.3976C28.782 10.3976 25.7439 9.5776 22.8083 8.7576C19.7989 7.9376 16.6829 7.0848 13.5833 7.0848C11.4849 7.06313 9.40801 7.50848 7.50301 8.3886V6.6256C8.04714 6.48537 8.52145 6.15147 8.83698 5.68651C9.15251 5.22155 9.2876 4.65745 9.21693 4.1C9.14625 3.54255 8.87466 3.03002 8.45308 2.65851C8.03149 2.287 7.48887 2.08203 6.92696 2.08203C6.36504 2.08203 5.82242 2.287 5.40084 2.65851C4.97926 3.03002 4.70767 3.54255 4.63699 4.1C4.56631 4.65745 4.70141 5.22155 5.01694 5.68651C5.33247 6.15147 5.80677 6.48537 6.35091 6.6256V38.95H7.50301V28.7656C9.38121 27.7993 11.4671 27.3066 13.5792 27.3306C16.5271 27.3306 19.5652 28.1506 22.5008 28.9706C25.5102 29.7906 28.6262 30.6434 31.7258 30.6434C34.1424 30.6734 36.5259 30.0804 38.6466 28.9214L38.9459 28.7574V8.3476L38.0972 8.815ZM5.78511 4.3747C5.78915 4.14775 5.86013 3.92705 5.98916 3.74031C6.11818 3.55356 6.2995 3.40909 6.51034 3.32502C6.72118 3.24096 6.95216 3.22105 7.17428 3.26779C7.39639 3.31453 7.59976 3.42584 7.75884 3.58776C7.91792 3.74967 8.02562 3.95496 8.06844 4.17787C8.11126 4.40078 8.08728 4.63136 7.99951 4.84069C7.91174 5.05002 7.76409 5.22876 7.5751 5.35447C7.38611 5.48018 7.16419 5.54726 6.93721 5.5473C6.6291 5.54405 6.33484 5.41881 6.1189 5.19902C5.90295 4.97924 5.78292 4.68281 5.78511 4.3747ZM37.7979 28.0604C35.921 29.0209 33.8382 29.5092 31.7299 29.4831C28.782 29.4831 25.7439 28.6631 22.8083 27.8431C19.7989 27.0231 16.6829 26.1703 13.5833 26.1703C11.4894 26.1492 9.41688 26.5931 7.51531 27.47V9.6678C9.39225 8.70734 11.4751 8.21901 13.5833 8.2451C16.5312 8.2451 19.5693 9.0651 22.5049 9.8851C25.5143 10.7051 28.6303 11.5579 31.7299 11.5579C33.8244 11.5763 35.8969 11.1296 37.7979 10.25V28.0604Z" fill="black"/>
</svg>
