<svg width="34" height="29" viewBox="0 0 34 29" fill="none" xmlns="http://www.w3.org/2000/svg">
<path d="M14.3296 21.908C16.5203 21.9506 18.3224 24.5213 17.2839 26.675C16.4126 28.4817 13.7419 29.1272 12.1408 27.7734C10.1599 26.0982 11.0805 21.9693 14.2437 21.908C14.287 21.9077 14.2867 21.9077 14.3296 21.908ZM27.4829 21.908C29.6735 21.9506 31.4757 24.5213 30.4372 26.675C29.5662 28.4817 26.8955 29.1272 25.2944 27.7734C23.3132 26.0982 24.2341 21.9693 27.397 21.908C27.44 21.9077 27.44 21.9077 27.4829 21.908ZM14.2595 23.1173C12.6532 23.1484 11.4657 25.4358 12.8086 26.7473C14.1286 28.0358 17.3039 26.6176 16.1944 24.3166C15.8461 23.5943 15.0709 23.1121 14.2595 23.1173ZM27.4128 23.1173C25.8089 23.1484 24.619 25.4358 25.9622 26.7473C27.2819 28.0358 30.4572 26.6176 29.3479 24.3166C28.9997 23.5943 28.2248 23.1121 27.4128 23.1173ZM32.8773 21.0007H10.0837C9.17616 20.9831 8.60779 19.7034 9.36995 19.0383L11.6537 17.1243C10.6355 12.5543 9.69193 7.96743 8.59872 3.41502C8.34598 2.41039 7.38277 1.6576 6.34791 1.65186H1.13762C0.494576 1.6059 0.383017 0.49667 1.13762 0.442554C2.88779 0.442554 4.63795 0.433182 6.38811 0.442856C7.95628 0.468251 9.40956 1.61165 9.78233 3.16378L10.2549 5.2846C10.2709 5.28248 10.2872 5.28067 10.3038 5.27976C17.3686 5.27976 24.4333 5.23532 31.4981 5.27976C32.5296 5.29941 33.449 6.19853 33.4813 7.23792C33.5273 9.58306 33.4823 11.9291 33.4823 14.2745C33.4696 15.2761 32.6645 16.1719 31.6505 16.2729L12.5661 17.9372L10.354 19.7914H32.8773C32.8797 19.7917 33.2253 19.8186 33.3861 20.0692C33.6174 20.4293 33.3402 20.9674 32.8773 21.0007ZM10.523 6.48906L12.7989 16.7034C19.0535 16.1617 25.3143 15.6873 31.5616 15.0663C31.9458 15.0192 32.2587 14.6794 32.2726 14.2906C32.3017 11.9466 32.3455 9.6012 32.2723 7.25848C32.2539 6.85185 31.8953 6.49692 31.4827 6.48906H10.523Z" fill="black"/>
</svg>
